<?xml version="1.0" encoding="UTF-8"?>
<!DOCTYPE svg PUBLIC "-//W3C//DTD SVG 1.1//EN" "http://www.w3.org/Graphics/SVG/1.1/DTD/svg11.dtd">
<svg xmlns="http://www.w3.org/2000/svg" version="1.1" width="1024px" height="1024px" style="shape-rendering:geometricPrecision; text-rendering:geometricPrecision; image-rendering:optimizeQuality; fill-rule:evenodd; clip-rule:evenodd" xmlns:xlink="http://www.w3.org/1999/xlink">
<g><path style="opacity:0.982" fill="#fefffe" d="M 381.5,76.5 C 423.36,73.501 464.36,77.6677 504.5,89C 597.059,119.895 664.225,179.395 706,267.5C 729.986,322.731 738.319,380.397 731,440.5C 728.183,456.583 724.85,472.583 721,488.5C 711.45,518.956 697.95,547.956 680.5,575.5C 735.473,631.14 790.806,686.473 846.5,741.5C 870.408,765.293 875.408,792.793 861.5,824C 857.438,830.085 852.771,835.585 847.5,840.5C 846.614,841.325 846.281,842.325 846.5,843.5C 842.79,845.683 838.79,847.35 834.5,848.5C 834.5,849.5 834.5,850.5 834.5,851.5C 828.989,853.462 823.322,854.962 817.5,856C 808.167,856.667 798.833,856.667 789.5,856C 784.344,855.004 779.344,853.504 774.5,851.5C 771.041,848.263 767.041,845.763 762.5,844C 761.415,841.117 759.415,839.117 756.5,838C 703.062,783.807 649.395,729.807 595.5,676C 592.632,673.788 589.798,671.621 587,669.5C 490.623,729.307 388.956,737.974 282,695.5C 271.966,690.9 262.133,685.9 252.5,680.5C 243.724,675.352 235.057,670.018 226.5,664.5C 225.614,663.675 225.281,662.675 225.5,661.5C 223.692,661.509 222.025,661.009 220.5,660C 191.302,637.438 165.802,611.271 144,581.5C 142.519,578.89 141.352,576.223 140.5,573.5C 139.5,573.5 138.5,573.5 137.5,573.5C 135.703,569.229 133.87,564.896 132,560.5C 101.426,511.575 87.2596,457.575 89.5,398.5C 89.4129,381.142 89.9129,363.808 91,346.5C 94.5478,329.309 98.8811,312.309 104,295.5C 119.635,251.488 143.301,212.154 175,177.5C 176.011,176.663 177.178,176.33 178.5,176.5C 179.345,172.647 181.679,169.981 185.5,168.5C 186.654,165.927 188.32,163.761 190.5,162C 191.448,161.517 192.448,161.351 193.5,161.5C 193.351,160.448 193.517,159.448 194,158.5C 231.96,125.49 275.127,101.657 323.5,87C 332.054,85.6253 340.387,83.6253 348.5,81C 359.604,79.228 370.604,77.728 381.5,76.5 Z M 407.5,175.5 C 491.512,176.724 556.012,211.724 601,280.5C 633.352,336.753 641.352,396.087 625,458.5C 620.639,476.417 613.806,493.75 604.5,510.5C 560.935,582.203 496.101,619.537 410,622.5C 331.792,620.172 270.458,588.172 226,526.5C 223.069,520.408 219.403,514.741 215,509.5C 185.116,451.109 179.449,390.442 198,327.5C 201.122,320.686 203.788,313.686 206,306.5C 211.123,295.59 216.79,284.923 223,274.5C 226.605,272.069 228.772,268.735 229.5,264.5C 243.538,248.297 258.871,233.13 275.5,219C 305.289,197.949 338.289,184.282 374.5,178C 385.659,177.211 396.659,176.378 407.5,175.5 Z"/></g>
<g><path style="opacity:0.97" fill="#fefffe" d="M 901.5,843.5 C 932.513,839.779 955.346,851.445 970,878.5C 982.312,912.005 974.145,939.172 945.5,960C 910.495,975.953 881.495,968.786 858.5,938.5C 843.341,907.128 848.341,879.628 873.5,856C 878.001,853.584 882.334,850.917 886.5,848C 891.577,846.32 896.577,844.82 901.5,843.5 Z"/></g>
</svg>
